<svg xmlns="http://www.w3.org/2000/svg" viewBox="0 0 128 128" role="img" aria-labelledby="title desc">
  <title id="title">이어그리기</title>
  <desc id="desc">문장 카드가 그림 카드로 이어지는 모습</desc>
  <rect width="128" height="128" rx="24" fill="#F3D96B"/>
  <path d="M20 26h59a8 8 0 0 1 8 8v38a8 8 0 0 1-8 8H46L29 94l4-14H20a8 8 0 0 1-8-8V34a8 8 0 0 1 8-8Z" fill="#fff" stroke="#173241" stroke-width="7" stroke-linejoin="round"/>
  <path d="M29 44h39M29 58h28" fill="none" stroke="#2474B5" stroke-width="7" stroke-linecap="round"/>
  <g transform="translate(60 57) rotate(7 31 28)">
    <rect x="0" y="0" width="58" height="55" rx="8" fill="#fff" stroke="#F3612A" stroke-width="7"/>
    <path d="m12 41 13-14 10 9 8-15 7 20Z" fill="#38C6B0" stroke="#173241" stroke-width="4" stroke-linejoin="round"/>
    <circle cx="18" cy="16" r="5" fill="#F3D96B" stroke="#173241" stroke-width="3"/>
  </g>
</svg>
