<svg xmlns="http://www.w3.org/2000/svg" viewBox="0 0 160 112" role="img" aria-labelledby="title desc">
  <title id="title">영역 넓히기</title>
  <desc id="desc">꽃밭 위를 달리며 영역을 만드는 고양이</desc>
  <defs>
    <linearGradient id="field" x1="0" y1="0" x2="1" y2="1">
      <stop offset="0" stop-color="#dff6df"/>
      <stop offset="1" stop-color="#c7edda"/>
    </linearGradient>
    <filter id="shadow" x="-30%" y="-30%" width="160%" height="160%">
      <feDropShadow dx="0" dy="3" stdDeviation="3" flood-color="#214457" flood-opacity=".18"/>
    </filter>
  </defs>
  <rect width="160" height="112" rx="22" fill="url(#field)"/>
  <path d="M17 82c21-28 46-33 67-16 18 14 30 12 59-11v39H17Z" fill="#ff887e" opacity=".62"/>
  <path d="M25 87c20-25 40-27 58-12 21 17 38 12 55-3" fill="none" stroke="#ff6f68" stroke-width="5" stroke-linecap="round" stroke-dasharray="1 10"/>
  <path d="M117 27v35" stroke="#214457" stroke-width="4" stroke-linecap="round"/>
  <path d="m120 28 22 9-22 9Z" fill="#ffc95d" stroke="#214457" stroke-width="3" stroke-linejoin="round"/>
  <g transform="translate(67 49)" filter="url(#shadow)">
    <path d="m-17-10 4-12 9 9M17-10l-4-12-9 9" fill="#fffaf2" stroke="#214457" stroke-width="3.5" stroke-linecap="round" stroke-linejoin="round"/>
    <circle r="20" fill="#fffaf2" stroke="#214457" stroke-width="3.5"/>
    <circle cx="-7" cy="-2" r="2.5" fill="#214457"/>
    <circle cx="7" cy="-2" r="2.5" fill="#214457"/>
    <path d="m-4 7 4 3 4-3" fill="none" stroke="#214457" stroke-width="2.8" stroke-linecap="round" stroke-linejoin="round"/>
    <circle cx="-13" cy="6" r="3" fill="#ffb5a9" opacity=".8"/>
    <circle cx="13" cy="6" r="3" fill="#ffb5a9" opacity=".8"/>
  </g>
  <g fill="#fff8b8" stroke="#75b997" stroke-width="2">
    <circle cx="26" cy="25" r="5"/>
    <circle cx="147" cy="75" r="4"/>
  </g>
  <g fill="#ffc95d">
    <circle cx="26" cy="25" r="2"/>
    <circle cx="147" cy="75" r="1.7"/>
  </g>
</svg>
